<svg width="18" height="18" viewBox="0 0 18 18" fill="none" xmlns="http://www.w3.org/2000/svg">
<path d="M15.5 4H11.5V5H15.5V15.5H11.5V16.5H16.5V5C16.5 4.73478 16.3946 4.48043 16.2071 4.29289C16.0196 4.10536 15.7652 4 15.5 4V4Z" fill="#C0C0C0"/>
<path d="M9.94 1.5H3.06C2.77887 1.5 2.50926 1.61168 2.31047 1.81047C2.11168 2.00926 2 2.27887 2 2.56V16.5H11V2.56C11 2.27887 10.8883 2.00926 10.6895 1.81047C10.4907 1.61168 10.2211 1.5 9.94 1.5V1.5ZM10 15.5H8.5V14H4.5V15.5H3V2.56C3 2.55212 3.00155 2.54432 3.00457 2.53704C3.00758 2.52976 3.012 2.52315 3.01757 2.51757C3.02315 2.512 3.02976 2.50758 3.03704 2.50457C3.04432 2.50155 3.05212 2.5 3.06 2.5H9.94C9.94788 2.5 9.95568 2.50155 9.96296 2.50457C9.97024 2.50758 9.97686 2.512 9.98243 2.51757C9.988 2.52315 9.99242 2.52976 9.99543 2.53704C9.99845 2.54432 10 2.55212 10 2.56V15.5Z" fill="#C0C0C0"/>
<path d="M4 4H5V5H4V4Z" fill="#C0C0C0"/>
<path d="M6 4H7V5H6V4Z" fill="#C0C0C0"/>
<path d="M8 4H9V5H8V4Z" fill="#C0C0C0"/>
<path d="M4 6.5H5V7.5H4V6.5Z" fill="#C0C0C0"/>
<path d="M6 6.5H7V7.5H6V6.5Z" fill="#C0C0C0"/>
<path d="M8 6.5H9V7.5H8V6.5Z" fill="#C0C0C0"/>
<path d="M4 9H5V10H4V9Z" fill="#C0C0C0"/>
<path d="M6 9H7V10H6V9Z" fill="#C0C0C0"/>
<path d="M8 9H9V10H8V9Z" fill="#C0C0C0"/>
<path d="M4 11.5H5V12.5H4V11.5Z" fill="#C0C0C0"/>
<path d="M6 11.5H7V12.5H6V11.5Z" fill="#C0C0C0"/>
<path d="M8 11.5H9V12.5H8V11.5Z" fill="#C0C0C0"/>
<path d="M11.5 6.5H12.5V7.5H11.5V6.5Z" fill="#C0C0C0"/>
<path d="M13.5 6.5H14.5V7.5H13.5V6.5Z" fill="#C0C0C0"/>
<path d="M11.5 9H12.5V10H11.5V9Z" fill="#C0C0C0"/>
<path d="M13.5 9H14.5V10H13.5V9Z" fill="#C0C0C0"/>
<path d="M11.5 11.5H12.5V12.5H11.5V11.5Z" fill="#C0C0C0"/>
<path d="M13.5 11.5H14.5V12.5H13.5V11.5Z" fill="#C0C0C0"/>
</svg>
