<svg width="18" height="18" viewBox="0 0 18 18" fill="none" xmlns="http://www.w3.org/2000/svg">
<path d="M14.925 9.495C14.8047 9.35813 14.7384 9.18218 14.7384 9C14.7384 8.81782 14.8047 8.64186 14.925 8.505L15.885 7.425C15.9908 7.307 16.0565 7.15853 16.0726 7.00088C16.0888 6.84323 16.0546 6.68451 15.975 6.5475L14.475 3.9525C14.3962 3.81564 14.2761 3.70716 14.132 3.64251C13.9879 3.57787 13.8271 3.56037 13.6725 3.5925L12.2625 3.8775C12.0831 3.91457 11.8963 3.88469 11.7374 3.7935C11.5785 3.70231 11.4585 3.55611 11.4 3.3825L10.9425 2.01C10.8922 1.86103 10.7963 1.73165 10.6685 1.64013C10.5406 1.54861 10.3872 1.49959 10.23 1.5H7.22998C7.06643 1.49146 6.90458 1.53669 6.76916 1.62878C6.63373 1.72087 6.53217 1.85476 6.47998 2.01L6.05998 3.3825C6.00148 3.55611 5.88146 3.70231 5.72257 3.7935C5.56367 3.88469 5.3769 3.91457 5.19748 3.8775L3.74998 3.5925C3.6034 3.57178 3.45396 3.59491 3.32049 3.65898C3.18703 3.72304 3.07551 3.82517 2.99998 3.9525L1.49998 6.5475C1.41835 6.68298 1.38165 6.84081 1.39512 6.99842C1.40859 7.15602 1.47154 7.30533 1.57498 7.425L2.52748 8.505C2.64772 8.64186 2.71403 8.81782 2.71403 9C2.71403 9.18218 2.64772 9.35813 2.52748 9.495L1.57498 10.575C1.47154 10.6947 1.40859 10.844 1.39512 11.0016C1.38165 11.1592 1.41835 11.317 1.49998 11.4525L2.99998 14.0475C3.07881 14.1844 3.19882 14.2928 3.34292 14.3575C3.48702 14.4221 3.64785 14.4396 3.80248 14.4075L5.21248 14.1225C5.3919 14.0854 5.57867 14.1153 5.73757 14.2065C5.89646 14.2977 6.01648 14.4439 6.07498 14.6175L6.53248 15.99C6.58467 16.1452 6.68623 16.2791 6.82166 16.3712C6.95708 16.4633 7.11893 16.5085 7.28248 16.5H10.2825C10.4397 16.5004 10.5931 16.4514 10.721 16.3599C10.8488 16.2684 10.9447 16.139 10.995 15.99L11.4525 14.6175C11.511 14.4439 11.631 14.2977 11.7899 14.2065C11.9488 14.1153 12.1356 14.0854 12.315 14.1225L13.725 14.4075C13.8796 14.4396 14.0404 14.4221 14.1845 14.3575C14.3286 14.2928 14.4487 14.1844 14.5275 14.0475L16.0275 11.4525C16.1071 11.3155 16.1413 11.1568 16.1251 10.9991C16.109 10.8415 16.0433 10.693 15.9375 10.575L14.925 9.495ZM13.8075 10.5L14.4075 11.175L13.4475 12.84L12.5625 12.66C12.0223 12.5496 11.4604 12.6413 10.9834 12.9178C10.5064 13.1944 10.1476 13.6364 9.97498 14.16L9.68998 15H7.76998L7.49998 14.145C7.32737 13.6214 6.96852 13.1794 6.49154 12.9029C6.01455 12.6263 5.45265 12.5346 4.91248 12.645L4.02748 12.825L3.05248 11.1675L3.65248 10.4925C4.02145 10.08 4.22543 9.54595 4.22543 8.9925C4.22543 8.43905 4.02145 7.90501 3.65248 7.4925L3.05248 6.8175L4.01248 5.1675L4.89748 5.3475C5.43765 5.45791 5.99955 5.36616 6.47654 5.08965C6.95352 4.81314 7.31237 4.37112 7.48498 3.8475L7.76998 3H9.68998L9.97498 3.855C10.1476 4.37862 10.5064 4.82064 10.9834 5.09715C11.4604 5.37366 12.0223 5.46541 12.5625 5.355L13.4475 5.175L14.4075 6.84L13.8075 7.515C13.4427 7.92657 13.2412 8.45751 13.2412 9.0075C13.2412 9.55749 13.4427 10.0884 13.8075 10.5V10.5ZM8.72998 6C8.13664 6 7.55662 6.17595 7.06327 6.50559C6.56992 6.83523 6.18541 7.30377 5.95834 7.85195C5.73128 8.40013 5.67187 9.00333 5.78763 9.58527C5.90338 10.1672 6.1891 10.7018 6.60866 11.1213C7.02822 11.5409 7.56277 11.8266 8.14471 11.9424C8.72665 12.0581 9.32985 11.9987 9.87803 11.7716C10.4262 11.5446 10.8947 11.1601 11.2244 10.6667C11.554 10.1734 11.73 9.59334 11.73 9C11.73 8.20435 11.4139 7.44129 10.8513 6.87868C10.2887 6.31607 9.52563 6 8.72998 6V6ZM8.72998 10.5C8.43331 10.5 8.1433 10.412 7.89663 10.2472C7.64995 10.0824 7.45769 9.84811 7.34416 9.57402C7.23063 9.29993 7.20093 8.99833 7.2588 8.70736C7.31668 8.41639 7.45954 8.14912 7.66932 7.93934C7.8791 7.72956 8.14638 7.5867 8.43735 7.52882C8.72832 7.47094 9.02992 7.50065 9.30401 7.61418C9.5781 7.72771 9.81236 7.91997 9.97719 8.16664C10.142 8.41332 10.23 8.70333 10.23 9C10.23 9.39782 10.0719 9.77935 9.79064 10.0607C9.50934 10.342 9.12781 10.5 8.72998 10.5Z" fill="#C0C0C0"/>
</svg>
