<svg width="18" height="18" viewBox="0 0 18 18" fill="none" xmlns="http://www.w3.org/2000/svg">
<path d="M14.4879 12.3029C14.048 11.8626 13.5338 11.5032 12.9692 11.2412C13.7655 10.5961 14.2735 9.6117 14.2735 8.5078C14.2735 6.56014 12.6493 4.96229 10.7016 4.99217C8.78383 5.02206 7.23872 6.58475 7.23872 8.5078C7.23872 9.6117 7.74848 10.5961 8.54301 11.2412C7.97824 11.503 7.4641 11.8624 7.02426 12.3029C6.0645 13.2644 5.51958 14.5336 5.48442 15.8871C5.48395 15.9059 5.48724 15.9245 5.4941 15.942C5.50095 15.9595 5.51124 15.9754 5.52434 15.9888C5.53745 16.0022 5.55311 16.0129 5.5704 16.0202C5.5877 16.0275 5.60628 16.0312 5.62504 16.0312H6.60942C6.685 16.0312 6.74829 15.9715 6.75004 15.8959C6.78344 14.8764 7.19653 13.9219 7.92251 13.1976C8.294 12.8242 8.73588 12.5281 9.22257 12.3265C9.70926 12.125 10.2311 12.022 10.7579 12.0234C11.8284 12.0234 12.8356 12.44 13.5932 13.1976C14.3174 13.9219 14.7305 14.8764 14.7657 15.8959C14.7674 15.9715 14.8307 16.0312 14.9063 16.0312H15.8907C15.9094 16.0312 15.928 16.0275 15.9453 16.0202C15.9626 16.0129 15.9783 16.0022 15.9914 15.9888C16.0045 15.9754 16.0148 15.9595 16.0216 15.942C16.0285 15.9245 16.0318 15.9059 16.0313 15.8871C15.9961 14.5336 15.4512 13.2644 14.4879 12.3029ZM10.7579 10.7578C10.1567 10.7578 9.59067 10.524 9.16704 10.0986C8.95443 9.88769 8.7865 9.6361 8.67324 9.35886C8.55999 9.08162 8.50374 8.7844 8.50786 8.48495C8.51313 7.90838 8.7434 7.35116 9.14594 6.93807C9.56782 6.50565 10.1321 6.26483 10.735 6.2578C11.3309 6.25252 11.9092 6.48456 12.3346 6.90116C12.7706 7.32831 13.0096 7.89959 13.0096 8.5078C13.0096 9.10897 12.7758 9.67323 12.3504 10.0986C12.1417 10.3083 11.8935 10.4745 11.6202 10.5877C11.3468 10.7008 11.0537 10.7587 10.7579 10.7578ZM6.35454 8.97186C6.33872 8.81893 6.32993 8.66424 6.32993 8.5078C6.32993 8.22831 6.35629 7.95584 6.40551 7.69041C6.41782 7.62713 6.38442 7.56209 6.32641 7.53573C6.08735 7.4285 5.86762 7.28084 5.67778 7.09452C5.45408 6.87762 5.27805 6.61646 5.16092 6.32773C5.04379 6.03899 4.98814 5.72901 4.9975 5.41756C5.01333 4.85331 5.24008 4.31717 5.63559 3.91288C6.06977 3.46815 6.65336 3.22557 7.27387 3.2326C7.83461 3.23788 8.37602 3.45409 8.78559 3.83729C8.92446 3.96737 9.04399 4.11151 9.14418 4.2662C9.17934 4.32069 9.2479 4.34354 9.30766 4.32245C9.61704 4.21522 9.94399 4.13963 10.2797 4.10448C10.3782 4.09393 10.4344 3.98846 10.3905 3.90057C9.81918 2.7703 8.652 1.98983 7.302 1.96874C5.35258 1.93885 3.72836 3.5367 3.72836 5.4826C3.72836 6.58651 4.23637 7.57088 5.03266 8.216C4.47368 8.4744 3.95864 8.83124 3.51215 9.27772C2.54887 10.2392 2.00395 11.5084 1.96879 12.8637C1.96832 12.8824 1.97162 12.9011 1.97847 12.9186C1.98533 12.936 1.99561 12.9519 2.00872 12.9654C2.02182 12.9788 2.03748 12.9895 2.05478 12.9968C2.07207 13.0041 2.09065 13.0078 2.10942 13.0078H3.09555C3.17114 13.0078 3.23442 12.948 3.23618 12.8724C3.26958 11.8529 3.68266 10.8984 4.40864 10.1742C4.92543 9.65741 5.55825 9.29881 6.24907 9.12479C6.31762 9.10721 6.36333 9.04217 6.35454 8.97186V8.97186Z" fill="#C0C0C0"/>
</svg>
