<svg width="501" height="207" viewBox="0 0 501 207" fill="none" xmlns="http://www.w3.org/2000/svg">
<path d="M333.059 120.404V113.625H326.925V123.309C326.925 124.923 328.217 126.537 329.831 126.537C334.995 126.537 338.869 130.733 338.869 136.221C338.869 141.708 334.672 145.905 329.831 145.905C324.989 145.905 320.792 141.708 320.792 136.221C320.792 134.607 319.501 132.993 317.887 132.993C316.273 132.993 314.982 134.284 314.982 136.221C314.982 144.936 321.761 152.038 330.153 152.038C338.546 152.038 345.325 144.936 345.325 136.221C345.002 128.151 339.837 121.695 333.059 120.404Z" fill="#3E4347"/>
<path d="M481.223 25.8242H332.413L313.368 64.5599H481.223V54.876H474.444L481.223 42.2869V25.8242ZM328.217 54.876L335.641 39.3817L343.711 54.876H328.217ZM342.742 35.5081H356.3L349.521 48.0972L342.742 35.5081ZM354.686 54.876L361.465 42.2869L368.243 54.876H354.686ZM366.629 35.5081H380.187L373.408 48.0972L366.629 35.5081ZM378.573 54.876L385.352 42.2869L392.13 54.876H378.573ZM390.516 35.5081H404.074L397.295 48.0972L390.516 35.5081ZM402.46 54.876L409.239 42.2869L416.017 54.876H402.46ZM469.279 48.0972L462.5 35.5081H476.058L469.279 48.0972Z" fill="#3E4347"/>
<path d="M326.603 61.332H333.059V93.6118H326.603V61.332Z" fill="#3E4347"/>
<path d="M335.318 90.3828H324.666L313.691 103.295H345.97L335.318 90.3828Z" fill="#0478FF"/>
<path d="M313.691 103.297L324.666 116.209H335.318L345.97 103.297H313.691Z" fill="#2456D5"/>
<path d="M453.462 93.6094V103.293L425.056 93.6094H416.663V200.133H425.056V180.765L453.462 190.449L425.056 200.133H461.855V93.6094H453.462ZM453.462 180.765L425.056 171.081L453.462 161.397V180.765ZM425.056 161.397V142.029L453.462 151.713L425.056 161.397ZM453.462 142.029L425.056 132.345L453.462 122.661V142.029ZM425.056 122.661V103.293L453.462 112.977L425.056 122.661Z" fill="#2456D5"/>
<path d="M468.311 87.802C468.311 92.644 464.437 96.8404 459.918 96.8404H418.6C414.081 96.8404 410.207 92.644 410.207 87.802V15.4954C410.207 10.6534 414.081 6.45703 418.6 6.45703H460.241C464.437 6.45703 468.311 10.6534 468.311 15.4954V87.802Z" fill="#0478FF"/>
<path d="M419.568 49.0659C419.568 52.2939 421.828 54.8763 424.41 54.8763H453.462C456.044 54.8763 458.304 52.2939 458.304 49.0659V21.951C458.304 18.723 456.044 16.1406 453.462 16.1406H424.41C421.828 16.1406 419.568 18.723 419.568 21.951V49.0659Z" fill="#2456D5"/>
<path d="M458.304 80.6999C458.304 84.2507 455.722 87.1559 452.816 87.1559H425.056C422.151 87.1559 419.568 84.2507 419.568 80.6999V67.788C419.568 64.2372 422.151 61.332 425.056 61.332H452.816C455.722 61.332 458.304 64.2372 458.304 67.788V80.6999Z" fill="#2456D5"/>
<path d="M18.51 104C16.914 104 15.78 103.692 15.108 103.076C14.464 102.432 14.142 101.494 14.142 100.262C14.142 99.898 14.156 99.324 14.184 98.54C14.24 97.728 14.31 96.776 14.394 95.684C14.478 94.592 14.562 93.402 14.646 92.114C14.758 90.826 14.87 89.51 14.982 88.166C15.122 86.514 15.234 85.1 15.318 83.924C15.43 82.72 15.514 81.698 15.57 80.858C15.626 79.99 15.668 79.276 15.696 78.716C15.752 78.128 15.78 77.624 15.78 77.204C15.808 76.756 15.822 76.35 15.822 75.986C15.85 75.622 15.864 75.23 15.864 74.81C15.864 74.586 15.934 74.432 16.074 74.348C16.214 74.236 16.354 74.18 16.494 74.18C17.222 74.18 18.02 74.166 18.888 74.138C19.756 74.082 20.624 74.026 21.492 73.97C22.36 73.914 23.2 73.872 24.012 73.844C24.824 73.788 25.538 73.76 26.154 73.76C27.946 73.76 29.486 73.984 30.774 74.432C32.062 74.852 33.098 75.482 33.882 76.322C34.694 77.134 35.282 78.128 35.646 79.304C36.038 80.48 36.234 81.824 36.234 83.336C36.234 84.988 36.01 86.584 35.562 88.124C35.142 89.636 34.47 90.98 33.546 92.156C32.622 93.332 31.432 94.27 29.976 94.97C28.52 95.67 26.784 96.02 24.768 96.02C23.564 96.02 22.542 95.894 21.702 95.642L21.114 103.37C21.086 103.594 21.03 103.762 20.946 103.874C20.862 103.958 20.694 104 20.442 104H18.51ZM25.314 80.06C24.95 80.06 24.544 80.088 24.096 80.144C23.648 80.172 23.172 80.214 22.668 80.27C22.612 81.446 22.542 82.874 22.458 84.554C22.374 86.234 22.262 87.998 22.122 89.846C22.542 89.958 22.948 90.042 23.34 90.098C23.76 90.126 24.138 90.14 24.474 90.14C25.454 90.14 26.238 89.916 26.826 89.468C27.442 88.992 27.918 88.418 28.254 87.746C28.59 87.074 28.814 86.374 28.926 85.646C29.038 84.918 29.094 84.288 29.094 83.756C29.094 82.552 28.814 81.642 28.254 81.026C27.722 80.382 26.742 80.06 25.314 80.06ZM36.9073 98.834C36.9073 96.314 38.0413 94.34 40.3093 92.912C42.5773 91.484 45.9233 90.714 50.3473 90.602C50.3753 90.294 50.3893 90.042 50.3893 89.846C50.4173 89.622 50.4313 89.356 50.4313 89.048C50.4313 88.152 50.2633 87.438 49.9273 86.906C49.5913 86.374 48.8913 86.108 47.8273 86.108C47.2393 86.108 46.7633 86.192 46.3993 86.36C46.0353 86.528 45.7413 86.766 45.5173 87.074C45.2933 87.354 45.1113 87.704 44.9713 88.124C44.8313 88.544 44.7053 89.006 44.5933 89.51C44.5373 89.762 44.4113 89.93 44.2153 90.014C44.0193 90.07 43.7113 90.098 43.2913 90.098C40.4353 90.098 39.0073 89.02 39.0073 86.864C39.0073 85.996 39.2033 85.17 39.5953 84.386C40.0153 83.602 40.6173 82.93 41.4013 82.37C42.2133 81.782 43.2213 81.32 44.4253 80.984C45.6293 80.648 47.0293 80.48 48.6253 80.48C51.7333 80.48 53.9873 81.124 55.3873 82.412C56.7873 83.7 57.4873 85.52 57.4873 87.872C57.4873 88.18 57.4453 88.74 57.3613 89.552C57.3053 90.336 57.2213 91.176 57.1093 92.072C57.0253 92.94 56.9413 93.766 56.8573 94.55C56.8013 95.334 56.7733 95.88 56.7733 96.188C56.7733 96.888 56.8993 97.392 57.1513 97.7C57.4033 97.98 57.6833 98.176 57.9913 98.288C58.3273 98.4 58.6213 98.484 58.8733 98.54C59.1253 98.596 59.2513 98.736 59.2513 98.96C59.2513 99.576 59.1673 100.206 58.9993 100.85C58.8313 101.494 58.5513 102.082 58.1593 102.614C57.7953 103.146 57.2773 103.58 56.6053 103.916C55.9613 104.252 55.1633 104.42 54.2113 104.42C52.8673 104.42 51.8593 104.098 51.1873 103.454C50.5153 102.81 50.0673 101.914 49.8433 100.766C49.1713 101.746 48.2893 102.6 47.1973 103.328C46.1333 104.056 44.7333 104.42 42.9973 104.42C42.1573 104.42 41.3593 104.322 40.6033 104.126C39.8753 103.93 39.2313 103.608 38.6713 103.16C38.1393 102.712 37.7053 102.138 37.3693 101.438C37.0613 100.71 36.9073 99.842 36.9073 98.834ZM49.9693 94.046C49.2413 94.046 48.5273 94.102 47.8273 94.214C47.1273 94.326 46.4973 94.508 45.9373 94.76C45.4053 94.984 44.9713 95.292 44.6353 95.684C44.2993 96.076 44.1313 96.552 44.1313 97.112C44.1313 97.756 44.3273 98.204 44.7193 98.456C45.1393 98.708 45.5873 98.834 46.0633 98.834C46.5113 98.834 46.9593 98.736 47.4073 98.54C47.8553 98.344 48.2473 98.05 48.5833 97.658C48.9473 97.238 49.2553 96.734 49.5073 96.146C49.7593 95.558 49.9133 94.858 49.9693 94.046ZM75.5673 99.044C74.8673 100.304 74.0133 101.242 73.0053 101.858C71.9973 102.446 70.7373 102.74 69.2253 102.74C68.0773 102.74 67.0273 102.558 66.0753 102.194C65.1233 101.83 64.3113 101.256 63.6393 100.472C62.9673 99.688 62.4353 98.708 62.0433 97.532C61.6793 96.328 61.4973 94.9 61.4973 93.248C61.4973 91.904 61.6373 90.49 61.9173 89.006C62.1973 87.494 62.7013 86.108 63.4293 84.848C64.1853 83.588 65.2073 82.552 66.4953 81.74C67.7833 80.9 69.4353 80.48 71.4513 80.48C72.2913 80.48 73.0053 80.578 73.5933 80.774C74.2093 80.942 74.7273 81.18 75.1473 81.488C75.5953 81.796 75.9453 82.16 76.1973 82.58C76.4773 83 76.6873 83.448 76.8273 83.924C76.8273 83.952 76.8273 83.854 76.8273 83.63C76.8553 83.378 76.8833 83.098 76.9113 82.79C76.9393 82.482 76.9533 82.188 76.9533 81.908C76.9813 81.6 76.9953 81.404 76.9953 81.32C77.0233 81.04 77.2053 80.9 77.5413 80.9H79.4733C80.9293 80.9 81.9793 81.208 82.6233 81.824C83.2953 82.412 83.6313 83.546 83.6313 85.226C83.6313 85.45 83.6173 85.968 83.5893 86.78C83.5613 87.564 83.5053 88.516 83.4213 89.636C83.3653 90.756 83.2813 92.002 83.1693 93.374C83.0573 94.718 82.9313 96.076 82.7913 97.448C82.6513 98.82 82.4973 100.136 82.3293 101.396C82.1613 102.656 81.9793 103.762 81.7833 104.714C81.5873 105.666 81.2513 106.59 80.7753 107.486C80.2993 108.382 79.6273 109.18 78.7593 109.88C77.8913 110.58 76.7713 111.14 75.3993 111.56C74.0553 111.98 72.4033 112.19 70.4433 112.19C68.9593 112.19 67.6573 112.05 66.5373 111.77C65.4453 111.49 64.5353 111.112 63.8073 110.636C63.0793 110.188 62.5193 109.67 62.1273 109.082C61.7633 108.494 61.5813 107.906 61.5813 107.318C61.5813 106.786 61.6933 106.324 61.9173 105.932C62.1413 105.54 62.4353 105.218 62.7993 104.966C63.1633 104.714 63.5553 104.518 63.9753 104.378C64.4233 104.266 64.8433 104.21 65.2353 104.21C65.7113 104.21 66.0613 104.35 66.2853 104.63C66.5093 104.91 66.7613 105.218 67.0413 105.554C67.3213 105.918 67.7133 106.24 68.2173 106.52C68.7213 106.8 69.5053 106.94 70.5693 106.94C72.4173 106.94 73.7053 106.254 74.4333 104.882C75.1893 103.538 75.5673 101.592 75.5673 99.044ZM72.0393 97.154C73.0473 97.154 73.8313 96.916 74.3913 96.44C74.9793 95.964 75.4273 95.39 75.7353 94.718C76.0433 94.046 76.2393 93.346 76.3233 92.618C76.4073 91.89 76.4493 91.26 76.4493 90.728C76.4493 89.048 76.1833 87.858 75.6513 87.158C75.1473 86.43 74.3773 86.066 73.3413 86.066C72.3053 86.066 71.4933 86.346 70.9053 86.906C70.3173 87.466 69.8693 88.138 69.5613 88.922C69.2813 89.678 69.0993 90.448 69.0153 91.232C68.9313 91.988 68.8893 92.576 68.8893 92.996C68.8893 94.396 69.1273 95.446 69.6033 96.146C70.0793 96.818 70.8913 97.154 72.0393 97.154ZM97.047 104.42C95.815 104.42 94.583 104.266 93.351 103.958C92.147 103.65 91.055 103.118 90.075 102.362C89.123 101.606 88.339 100.598 87.723 99.338C87.107 98.078 86.799 96.496 86.799 94.592C86.799 93.892 86.855 93.052 86.967 92.072C87.079 91.092 87.289 90.084 87.597 89.048C87.933 88.012 88.381 86.99 88.941 85.982C89.529 84.946 90.285 84.022 91.209 83.21C92.133 82.398 93.253 81.74 94.569 81.236C95.885 80.732 97.453 80.48 99.273 80.48C100.729 80.48 101.961 80.648 102.969 80.984C103.977 81.32 104.789 81.782 105.405 82.37C106.021 82.93 106.469 83.588 106.749 84.344C107.029 85.1 107.169 85.912 107.169 86.78C107.169 88.068 106.903 89.16 106.371 90.056C105.867 90.952 105.195 91.708 104.355 92.324C103.543 92.912 102.633 93.374 101.625 93.71C100.617 94.046 99.623 94.312 98.643 94.508C97.663 94.676 96.753 94.788 95.913 94.844C95.101 94.872 94.471 94.886 94.023 94.886C94.023 95.418 94.093 95.95 94.233 96.482C94.401 96.986 94.639 97.434 94.947 97.826C95.255 98.218 95.661 98.54 96.165 98.792C96.669 99.044 97.285 99.17 98.013 99.17C98.741 99.17 99.301 99.058 99.693 98.834C100.113 98.582 100.449 98.316 100.701 98.036C100.953 97.728 101.163 97.462 101.331 97.238C101.527 96.986 101.779 96.86 102.087 96.86C102.227 96.86 102.465 96.902 102.801 96.986C103.165 97.042 103.529 97.182 103.893 97.406C104.257 97.63 104.579 97.938 104.859 98.33C105.139 98.722 105.279 99.226 105.279 99.842C105.279 100.654 105.027 101.354 104.523 101.942C104.019 102.53 103.361 103.006 102.549 103.37C101.765 103.734 100.883 104 99.903 104.168C98.923 104.336 97.971 104.42 97.047 104.42ZM97.845 86.066C97.229 86.066 96.697 86.248 96.249 86.612C95.829 86.948 95.465 87.382 95.157 87.914C94.877 88.446 94.653 89.034 94.485 89.678C94.345 90.322 94.233 90.938 94.149 91.526C95.885 91.498 97.285 91.204 98.349 90.644C99.441 90.084 99.987 89.286 99.987 88.25C99.987 87.69 99.805 87.186 99.441 86.738C99.105 86.29 98.573 86.066 97.845 86.066ZM126.744 84.47C126.744 85.058 126.688 85.884 126.576 86.948C126.492 88.012 126.394 89.118 126.282 90.266C126.198 91.414 126.1 92.492 125.988 93.5C125.904 94.508 125.862 95.236 125.862 95.684C125.862 96.664 126.1 97.434 126.576 97.994C127.08 98.526 127.766 98.792 128.634 98.792C129.39 98.792 130.02 98.498 130.524 97.91C131.056 97.294 131.476 96.51 131.784 95.558C132.12 94.578 132.386 93.472 132.582 92.24C132.778 91.008 132.918 89.762 133.002 88.502C133.114 87.242 133.198 86.024 133.254 84.848C133.338 83.644 133.422 82.608 133.506 81.74C133.534 81.516 133.618 81.32 133.758 81.152C133.898 80.984 134.122 80.9 134.43 80.9H135.942C136.81 80.9 137.51 80.998 138.042 81.194C138.602 81.362 139.036 81.614 139.344 81.95C139.68 82.286 139.904 82.706 140.016 83.21C140.156 83.686 140.226 84.246 140.226 84.89C140.226 85.31 140.198 85.912 140.142 86.696C140.114 87.452 140.044 88.516 139.932 89.888C139.82 91.232 139.68 92.954 139.512 95.054C139.372 97.126 139.19 99.702 138.966 102.782C138.91 103.37 138.84 103.72 138.756 103.832C138.7 103.944 138.476 104 138.084 104H136.446C135.606 104 134.906 103.902 134.346 103.706C133.814 103.51 133.38 103.258 133.044 102.95C132.708 102.642 132.47 102.278 132.33 101.858C132.19 101.438 132.106 101.004 132.078 100.556C131.658 101.284 131.182 101.9 130.65 102.404C130.146 102.908 129.614 103.314 129.054 103.622C128.494 103.902 127.92 104.098 127.332 104.21C126.744 104.35 126.17 104.42 125.61 104.42C124.546 104.42 123.594 104.252 122.754 103.916C121.914 103.552 121.2 103.076 120.612 102.488C120.052 101.9 119.618 101.2 119.31 100.388C119.002 99.576 118.848 98.708 118.848 97.784C118.848 97.42 118.862 96.832 118.89 96.02C118.946 95.18 119.002 94.242 119.058 93.206C119.142 92.17 119.226 91.078 119.31 89.93C119.394 88.754 119.464 87.648 119.52 86.612C119.604 85.576 119.674 84.666 119.73 83.882C119.814 83.098 119.87 82.538 119.898 82.202C119.954 81.698 120.066 81.362 120.234 81.194C120.402 80.998 120.682 80.9 121.074 80.9H122.418C123.286 80.9 124 80.984 124.56 81.152C125.12 81.32 125.554 81.558 125.862 81.866C126.198 82.174 126.422 82.552 126.534 83C126.674 83.42 126.744 83.91 126.744 84.47ZM158.228 100.304C158.228 99.688 158.27 98.89 158.354 97.91C158.466 96.902 158.564 95.852 158.648 94.76C158.76 93.64 158.858 92.562 158.942 91.526C159.054 90.49 159.11 89.622 159.11 88.922C159.11 88.194 158.928 87.55 158.564 86.99C158.228 86.402 157.556 86.108 156.548 86.108C155.568 86.108 154.756 86.346 154.112 86.822C153.468 87.298 152.922 88.166 152.474 89.426C152.054 90.686 151.704 92.422 151.424 94.634C151.144 96.846 150.878 99.688 150.626 103.16C150.598 103.496 150.528 103.72 150.416 103.832C150.304 103.944 150.066 104 149.702 104H148.19C147.322 104 146.608 103.916 146.048 103.748C145.516 103.552 145.082 103.286 144.746 102.95C144.438 102.614 144.214 102.208 144.074 101.732C143.962 101.228 143.906 100.654 143.906 100.01C143.906 99.59 143.92 99.002 143.948 98.246C144.004 97.462 144.088 96.398 144.2 95.054C144.312 93.682 144.438 91.96 144.578 89.888C144.746 87.788 144.942 85.198 145.166 82.118C145.194 81.502 145.264 81.138 145.376 81.026C145.46 80.942 145.684 80.9 146.048 80.9H147.686C148.526 80.9 149.212 80.998 149.744 81.194C150.304 81.39 150.752 81.656 151.088 81.992C151.424 82.3 151.662 82.678 151.802 83.126C151.942 83.546 152.026 83.98 152.054 84.428C152.922 82.944 153.916 81.922 155.036 81.362C156.156 80.774 157.556 80.48 159.236 80.48C160.412 80.48 161.434 80.606 162.302 80.858C163.17 81.11 163.884 81.544 164.444 82.16C165.032 82.748 165.466 83.532 165.746 84.512C166.026 85.464 166.166 86.654 166.166 88.082C166.166 88.53 166.138 89.174 166.082 90.014C166.026 90.854 165.956 91.778 165.872 92.786C165.788 93.766 165.69 94.802 165.578 95.894C165.494 96.958 165.41 97.952 165.326 98.876C165.242 99.8 165.172 100.612 165.116 101.312C165.06 102.012 165.032 102.474 165.032 102.698C165.032 103.314 164.962 103.692 164.822 103.832C164.682 103.944 164.374 104 163.898 104H162.554C161.658 104 160.93 103.916 160.37 103.748C159.81 103.58 159.376 103.342 159.068 103.034C158.76 102.726 158.536 102.348 158.396 101.9C158.284 101.424 158.228 100.892 158.228 100.304ZM177.596 104.42C176.504 104.42 175.454 104.224 174.446 103.832C173.466 103.44 172.598 102.824 171.842 101.984C171.114 101.144 170.526 100.08 170.078 98.792C169.658 97.504 169.448 95.95 169.448 94.13C169.448 93.318 169.504 92.422 169.616 91.442C169.728 90.434 169.924 89.426 170.204 88.418C170.484 87.41 170.876 86.43 171.38 85.478C171.884 84.526 172.514 83.686 173.27 82.958C174.054 82.202 174.978 81.6 176.042 81.152C177.134 80.704 178.408 80.48 179.864 80.48C181.264 80.48 182.384 80.732 183.224 81.236C184.092 81.712 184.638 82.552 184.862 83.756C184.918 82.664 184.974 81.712 185.03 80.9C185.086 80.088 185.128 79.332 185.156 78.632C185.212 77.932 185.268 77.232 185.324 76.532C185.38 75.832 185.436 75.034 185.492 74.138C185.52 73.522 185.59 73.158 185.702 73.046C185.758 72.99 185.828 72.962 185.912 72.962C185.996 72.934 186.15 72.92 186.374 72.92H188.012C188.852 72.92 189.552 73.018 190.112 73.214C190.672 73.41 191.12 73.676 191.456 74.012C191.792 74.348 192.03 74.74 192.17 75.188C192.31 75.608 192.38 76.056 192.38 76.532C192.38 76.532 192.352 76.882 192.296 77.582C192.24 78.282 192.17 79.22 192.086 80.396C192.002 81.544 191.904 82.86 191.792 84.344C191.68 85.828 191.568 87.368 191.456 88.964C191.344 90.532 191.232 92.1 191.12 93.668C191.008 95.208 190.896 96.636 190.784 97.952C190.672 99.24 190.574 100.36 190.49 101.312C190.434 102.236 190.392 102.852 190.363 103.16C190.308 103.496 190.238 103.72 190.154 103.832C190.07 103.944 189.832 104 189.44 104H187.928C187.34 104 186.78 103.958 186.248 103.874C185.744 103.762 185.296 103.594 184.904 103.37C184.54 103.118 184.246 102.796 184.022 102.404C183.826 101.984 183.728 101.452 183.728 100.808C183.224 101.872 182.454 102.74 181.418 103.412C180.41 104.084 179.136 104.42 177.596 104.42ZM181.25 86.066C179.822 86.066 178.758 86.696 178.058 87.956C177.386 89.188 177.05 90.854 177.05 92.954C177.05 93.682 177.092 94.396 177.176 95.096C177.288 95.796 177.47 96.426 177.722 96.986C177.974 97.546 178.31 97.994 178.73 98.33C179.178 98.666 179.738 98.834 180.41 98.834C181.614 98.834 182.622 98.246 183.434 97.07C184.246 95.894 184.652 94.046 184.652 91.526C184.652 90.826 184.61 90.154 184.526 89.51C184.442 88.838 184.274 88.25 184.022 87.746C183.77 87.242 183.42 86.836 182.972 86.528C182.524 86.22 181.95 86.066 181.25 86.066ZM205.164 104.42C203.932 104.42 202.7 104.266 201.468 103.958C200.264 103.65 199.172 103.118 198.192 102.362C197.24 101.606 196.456 100.598 195.84 99.338C195.224 98.078 194.916 96.496 194.916 94.592C194.916 93.892 194.972 93.052 195.084 92.072C195.196 91.092 195.406 90.084 195.714 89.048C196.05 88.012 196.498 86.99 197.058 85.982C197.646 84.946 198.402 84.022 199.326 83.21C200.25 82.398 201.37 81.74 202.686 81.236C204.002 80.732 205.57 80.48 207.39 80.48C208.846 80.48 210.078 80.648 211.086 80.984C212.094 81.32 212.906 81.782 213.522 82.37C214.138 82.93 214.586 83.588 214.866 84.344C215.146 85.1 215.286 85.912 215.286 86.78C215.286 88.068 215.02 89.16 214.488 90.056C213.984 90.952 213.312 91.708 212.472 92.324C211.66 92.912 210.75 93.374 209.742 93.71C208.734 94.046 207.74 94.312 206.76 94.508C205.78 94.676 204.87 94.788 204.03 94.844C203.218 94.872 202.588 94.886 202.14 94.886C202.14 95.418 202.21 95.95 202.35 96.482C202.518 96.986 202.756 97.434 203.064 97.826C203.372 98.218 203.778 98.54 204.282 98.792C204.786 99.044 205.402 99.17 206.13 99.17C206.858 99.17 207.418 99.058 207.81 98.834C208.23 98.582 208.566 98.316 208.818 98.036C209.07 97.728 209.28 97.462 209.448 97.238C209.644 96.986 209.896 96.86 210.204 96.86C210.344 96.86 210.582 96.902 210.918 96.986C211.282 97.042 211.646 97.182 212.01 97.406C212.374 97.63 212.696 97.938 212.976 98.33C213.256 98.722 213.396 99.226 213.396 99.842C213.396 100.654 213.144 101.354 212.64 101.942C212.136 102.53 211.478 103.006 210.666 103.37C209.882 103.734 209 104 208.02 104.168C207.04 104.336 206.088 104.42 205.164 104.42ZM205.962 86.066C205.346 86.066 204.814 86.248 204.366 86.612C203.946 86.948 203.582 87.382 203.274 87.914C202.994 88.446 202.77 89.034 202.602 89.678C202.462 90.322 202.35 90.938 202.266 91.526C204.002 91.498 205.402 91.204 206.466 90.644C207.558 90.084 208.104 89.286 208.104 88.25C208.104 87.69 207.922 87.186 207.558 86.738C207.222 86.29 206.69 86.066 205.962 86.066ZM231.382 90.938C231.214 90.938 231.018 90.938 230.794 90.938C230.598 90.91 230.402 90.882 230.206 90.854C230.01 90.798 229.842 90.742 229.702 90.686C229.562 90.602 229.492 90.504 229.492 90.392C229.492 90.028 229.506 89.692 229.534 89.384C229.562 89.076 229.576 88.754 229.576 88.418C229.576 87.802 229.492 87.298 229.324 86.906C229.156 86.514 228.82 86.318 228.316 86.318C227.532 86.318 226.874 86.836 226.342 87.872C225.838 88.88 225.516 90.406 225.376 92.45C225.32 93.346 225.236 94.368 225.124 95.516C225.04 96.636 224.956 97.728 224.872 98.792C224.788 99.828 224.718 100.752 224.662 101.564C224.606 102.376 224.578 102.908 224.578 103.16C224.578 103.44 224.48 103.65 224.284 103.79C224.088 103.93 223.878 104 223.654 104H222.142C221.274 104 220.56 103.916 220 103.748C219.468 103.552 219.034 103.286 218.698 102.95C218.39 102.614 218.166 102.208 218.026 101.732C217.914 101.228 217.858 100.654 217.858 100.01C217.858 99.59 217.872 99.002 217.9 98.246C217.956 97.462 218.04 96.398 218.152 95.054C218.264 93.682 218.39 91.96 218.53 89.888C218.698 87.788 218.894 85.198 219.118 82.118C219.174 81.306 219.468 80.9 220 80.9H221.638C222.422 80.9 223.08 80.984 223.612 81.152C224.144 81.32 224.578 81.558 224.914 81.866C225.25 82.146 225.488 82.482 225.628 82.874C225.796 83.266 225.908 83.672 225.964 84.092C226.3 83.448 226.692 82.902 227.14 82.454C227.616 81.978 228.106 81.6 228.61 81.32C229.114 81.012 229.632 80.802 230.164 80.69C230.696 80.55 231.186 80.48 231.634 80.48C232.166 80.48 232.698 80.578 233.23 80.774C233.79 80.97 234.294 81.264 234.742 81.656C235.19 82.048 235.54 82.552 235.792 83.168C236.072 83.784 236.212 84.512 236.212 85.352C236.212 86.108 236.1 86.822 235.876 87.494C235.652 88.166 235.33 88.768 234.91 89.3C234.49 89.804 233.972 90.21 233.356 90.518C232.768 90.798 232.11 90.938 231.382 90.938ZM24.306 148.834C25.118 148.834 25.818 148.722 26.406 148.498C27.022 148.274 27.554 148.022 28.002 147.742C28.45 147.462 28.828 147.21 29.136 146.986C29.444 146.762 29.724 146.65 29.976 146.65C30.62 146.65 30.942 147.07 30.942 147.91C30.942 148.106 30.9 148.386 30.816 148.75C30.732 149.086 30.62 149.45 30.48 149.842C30.34 150.206 30.186 150.556 30.018 150.892C29.878 151.228 29.738 151.48 29.598 151.648C29.458 151.788 29.206 152.012 28.842 152.32C28.506 152.628 28.044 152.936 27.456 153.244C26.868 153.552 26.182 153.818 25.398 154.042C24.614 154.294 23.746 154.42 22.794 154.42C21.73 154.42 20.624 154.266 19.476 153.958C18.356 153.622 17.334 153.062 16.41 152.278C15.486 151.466 14.716 150.388 14.1 149.044C13.512 147.672 13.218 145.964 13.218 143.92C13.218 143.192 13.26 142.366 13.344 141.442C13.456 140.49 13.666 139.524 13.974 138.544C14.282 137.536 14.688 136.556 15.192 135.604C15.724 134.624 16.424 133.756 17.292 133C18.16 132.244 19.196 131.642 20.4 131.194C21.632 130.718 23.088 130.48 24.768 130.48C26.14 130.48 27.316 130.648 28.296 130.984C29.304 131.292 30.13 131.726 30.774 132.286C31.418 132.818 31.894 133.448 32.202 134.176C32.538 134.904 32.706 135.688 32.706 136.528C32.706 138.04 32.23 139.16 31.278 139.888C30.326 140.588 28.982 140.938 27.246 140.938C26.826 140.938 26.532 140.91 26.364 140.854C26.224 140.77 26.154 140.602 26.154 140.35C26.154 139.678 26.14 139.076 26.112 138.544C26.084 138.012 26 137.564 25.86 137.2C25.748 136.836 25.566 136.556 25.314 136.36C25.062 136.164 24.698 136.066 24.222 136.066C23.354 136.066 22.654 136.346 22.122 136.906C21.618 137.466 21.226 138.152 20.946 138.964C20.694 139.748 20.526 140.56 20.442 141.4C20.386 142.24 20.358 142.94 20.358 143.5C20.358 145.488 20.666 146.874 21.282 147.658C21.926 148.442 22.934 148.834 24.306 148.834ZM44.4581 154.42C42.5261 154.42 40.9161 154.154 39.6281 153.622C38.3681 153.062 37.3601 152.306 36.6041 151.354C35.8481 150.402 35.3161 149.296 35.0081 148.036C34.7001 146.748 34.5461 145.376 34.5461 143.92C34.5461 142.24 34.7421 140.602 35.1341 139.006C35.5541 137.382 36.2541 135.94 37.2341 134.68C38.2141 133.42 39.5021 132.412 41.0981 131.656C42.7221 130.872 44.7381 130.48 47.1461 130.48C50.6741 130.48 53.1941 131.348 54.7061 133.084C56.2461 134.792 57.0161 137.2 57.0161 140.308C57.0161 141.176 56.9461 142.142 56.8061 143.206C56.6941 144.242 56.4561 145.278 56.0921 146.314C55.7561 147.35 55.2801 148.358 54.6641 149.338C54.0761 150.318 53.3201 151.186 52.3961 151.942C51.4721 152.698 50.3521 153.3 49.0361 153.748C47.7481 154.196 46.2221 154.42 44.4581 154.42ZM46.4321 136.066C45.3681 136.066 44.5141 136.346 43.8701 136.906C43.2541 137.438 42.7781 138.096 42.4421 138.88C42.1341 139.636 41.9241 140.448 41.8121 141.316C41.7281 142.156 41.6861 142.87 41.6861 143.458C41.6861 145.306 41.9801 146.664 42.5681 147.532C43.1561 148.4 43.9961 148.834 45.0881 148.834C46.0681 148.834 46.8661 148.526 47.4821 147.91C48.1261 147.294 48.6161 146.552 48.9521 145.684C49.3161 144.816 49.5541 143.906 49.6661 142.954C49.8061 142.002 49.8761 141.204 49.8761 140.56C49.8761 139.16 49.6101 138.068 49.0781 137.284C48.5741 136.472 47.6921 136.066 46.4321 136.066ZM74.4737 150.304C74.4737 149.688 74.5157 148.89 74.5997 147.91C74.7117 146.902 74.8097 145.852 74.8937 144.76C75.0057 143.64 75.1037 142.562 75.1877 141.526C75.2997 140.49 75.3557 139.622 75.3557 138.922C75.3557 138.194 75.1737 137.55 74.8097 136.99C74.4737 136.402 73.8017 136.108 72.7937 136.108C71.8137 136.108 71.0017 136.346 70.3577 136.822C69.7137 137.298 69.1677 138.166 68.7197 139.426C68.2997 140.686 67.9497 142.422 67.6697 144.634C67.3897 146.846 67.1237 149.688 66.8717 153.16C66.8437 153.496 66.7737 153.72 66.6617 153.832C66.5497 153.944 66.3117 154 65.9477 154H64.4357C63.5677 154 62.8537 153.916 62.2937 153.748C61.7617 153.552 61.3277 153.286 60.9917 152.95C60.6837 152.614 60.4597 152.208 60.3197 151.732C60.2077 151.228 60.1517 150.654 60.1517 150.01C60.1517 149.59 60.1657 149.002 60.1937 148.246C60.2497 147.462 60.3337 146.398 60.4457 145.054C60.5577 143.682 60.6837 141.96 60.8237 139.888C60.9917 137.788 61.1877 135.198 61.4117 132.118C61.4397 131.502 61.5097 131.138 61.6217 131.026C61.7057 130.942 61.9297 130.9 62.2937 130.9H63.9317C64.7717 130.9 65.4577 130.998 65.9897 131.194C66.5497 131.39 66.9977 131.656 67.3337 131.992C67.6697 132.3 67.9077 132.678 68.0477 133.126C68.1877 133.546 68.2717 133.98 68.2997 134.428C69.1677 132.944 70.1617 131.922 71.2817 131.362C72.4017 130.774 73.8017 130.48 75.4817 130.48C76.6577 130.48 77.6797 130.606 78.5477 130.858C79.4157 131.11 80.1297 131.544 80.6897 132.16C81.2777 132.748 81.7117 133.532 81.9917 134.512C82.2717 135.464 82.4117 136.654 82.4117 138.082C82.4117 138.53 82.3837 139.174 82.3277 140.014C82.2717 140.854 82.2017 141.778 82.1177 142.786C82.0337 143.766 81.9357 144.802 81.8237 145.894C81.7397 146.958 81.6557 147.952 81.5717 148.876C81.4877 149.8 81.4177 150.612 81.3617 151.312C81.3057 152.012 81.2777 152.474 81.2777 152.698C81.2777 153.314 81.2077 153.692 81.0677 153.832C80.9277 153.944 80.6197 154 80.1437 154H78.7997C77.9037 154 77.1757 153.916 76.6157 153.748C76.0557 153.58 75.6217 153.342 75.3137 153.034C75.0057 152.726 74.7817 152.348 74.6417 151.9C74.5297 151.424 74.4737 150.892 74.4737 150.304ZM95.9416 130.48C98.3216 130.48 100.072 130.956 101.192 131.908C102.312 132.832 102.872 134.022 102.872 135.478C102.872 136.71 102.48 137.648 101.696 138.292C100.94 138.936 99.8336 139.258 98.3776 139.258C97.9856 139.258 97.7196 139.216 97.5796 139.132C97.4396 139.048 97.3696 138.894 97.3696 138.67C97.3696 138.418 97.3416 138.138 97.2856 137.83C97.2576 137.494 97.1596 137.186 96.9916 136.906C96.8516 136.598 96.6136 136.346 96.2776 136.15C95.9696 135.954 95.5216 135.856 94.9336 135.856C94.1496 135.856 93.5196 136.052 93.0436 136.444C92.5676 136.808 92.3296 137.27 92.3296 137.83C92.3296 138.418 92.5676 138.894 93.0436 139.258C93.5476 139.594 94.1636 139.916 94.8916 140.224C95.6476 140.532 96.4596 140.854 97.3276 141.19C98.1956 141.498 98.9936 141.918 99.7216 142.45C100.478 142.982 101.094 143.654 101.57 144.466C102.074 145.25 102.326 146.272 102.326 147.532C102.326 149.548 101.612 151.2 100.184 152.488C98.7556 153.776 96.6136 154.42 93.7576 154.42C92.9736 154.42 92.0636 154.35 91.0276 154.21C90.0196 154.098 89.0536 153.916 88.1296 153.664C87.2056 153.384 86.4216 153.02 85.7776 152.572C85.1616 152.124 84.8536 151.564 84.8536 150.892C84.8536 150.64 84.8956 150.332 84.9796 149.968C85.0916 149.604 85.2456 149.254 85.4416 148.918C85.6656 148.582 85.9176 148.302 86.1976 148.078C86.5056 147.826 86.8696 147.7 87.2896 147.7C87.6256 147.7 87.9336 147.784 88.2136 147.952C88.4936 148.12 88.8156 148.302 89.1796 148.498C89.5716 148.666 90.0476 148.834 90.6076 149.002C91.1676 149.17 91.9096 149.254 92.8336 149.254C93.5336 149.254 94.1496 149.17 94.6816 149.002C95.2416 148.834 95.5216 148.456 95.5216 147.868C95.5216 147.336 95.2976 146.916 94.8496 146.608C94.4016 146.272 93.8276 145.964 93.1276 145.684C92.4556 145.404 91.7136 145.11 90.9016 144.802C90.1176 144.466 89.3756 144.032 88.6756 143.5C88.0036 142.968 87.4436 142.296 86.9956 141.484C86.5476 140.644 86.3236 139.566 86.3236 138.25C86.3236 136.822 86.6036 135.618 87.1636 134.638C87.7516 133.63 88.4936 132.818 89.3896 132.202C90.3136 131.586 91.3496 131.152 92.4976 130.9C93.6456 130.62 94.7936 130.48 95.9416 130.48ZM114.914 136.57C114.83 137.634 114.732 138.684 114.62 139.72C114.536 140.756 114.452 141.736 114.368 142.66C114.284 143.584 114.214 144.41 114.158 145.138C114.13 145.866 114.116 146.426 114.116 146.818C114.116 147.546 114.2 148.036 114.368 148.288C114.536 148.512 114.816 148.624 115.208 148.624C115.516 148.624 115.782 148.568 116.006 148.456C116.23 148.344 116.44 148.218 116.636 148.078C116.832 147.938 117 147.812 117.14 147.7C117.308 147.588 117.49 147.532 117.686 147.532C117.882 147.532 118.064 147.644 118.232 147.868C118.4 148.092 118.484 148.61 118.484 149.422C118.484 150.962 118.064 152.18 117.224 153.076C116.384 153.972 114.942 154.42 112.898 154.42C110.882 154.42 109.384 153.958 108.404 153.034C107.452 152.082 106.976 150.64 106.976 148.708C106.976 148.288 106.99 147.798 107.018 147.238C107.074 146.65 107.144 145.894 107.228 144.97C107.312 144.046 107.41 142.912 107.522 141.568C107.662 140.224 107.802 138.558 107.942 136.57H105.716C105.492 136.57 105.352 136.528 105.296 136.444C105.268 136.332 105.254 136.178 105.254 135.982L105.38 133.84C105.408 133.476 105.45 133.126 105.506 132.79C105.59 132.426 105.73 132.104 105.926 131.824C106.15 131.544 106.458 131.32 106.85 131.152C107.242 130.984 107.76 130.9 108.404 130.9C108.6 130.396 108.824 129.794 109.076 129.094C109.328 128.394 109.58 127.722 109.832 127.078C110.084 126.406 110.322 125.846 110.546 125.398C110.798 124.95 111.022 124.726 111.218 124.726H112.436C113.612 124.726 114.424 125.09 114.872 125.818C115.32 126.546 115.544 127.414 115.544 128.422C115.544 128.982 115.502 129.808 115.418 130.9H119.828C120.276 130.9 120.5 131.096 120.5 131.488L120.332 133.756C120.276 134.596 120.038 135.282 119.618 135.814C119.226 136.318 118.4 136.57 117.14 136.57H114.914ZM136.226 140.938C136.058 140.938 135.862 140.938 135.638 140.938C135.442 140.91 135.246 140.882 135.05 140.854C134.854 140.798 134.686 140.742 134.546 140.686C134.406 140.602 134.336 140.504 134.336 140.392C134.336 140.028 134.35 139.692 134.378 139.384C134.406 139.076 134.42 138.754 134.42 138.418C134.42 137.802 134.336 137.298 134.168 136.906C134 136.514 133.664 136.318 133.16 136.318C132.376 136.318 131.718 136.836 131.186 137.872C130.682 138.88 130.36 140.406 130.22 142.45C130.164 143.346 130.08 144.368 129.968 145.516C129.884 146.636 129.8 147.728 129.716 148.792C129.632 149.828 129.562 150.752 129.506 151.564C129.45 152.376 129.422 152.908 129.422 153.16C129.422 153.44 129.324 153.65 129.128 153.79C128.932 153.93 128.722 154 128.498 154H126.986C126.118 154 125.404 153.916 124.844 153.748C124.312 153.552 123.878 153.286 123.542 152.95C123.234 152.614 123.01 152.208 122.87 151.732C122.758 151.228 122.702 150.654 122.702 150.01C122.702 149.59 122.716 149.002 122.744 148.246C122.8 147.462 122.884 146.398 122.996 145.054C123.108 143.682 123.234 141.96 123.374 139.888C123.542 137.788 123.738 135.198 123.962 132.118C124.018 131.306 124.312 130.9 124.844 130.9H126.481C127.266 130.9 127.924 130.984 128.456 131.152C128.988 131.32 129.422 131.558 129.758 131.866C130.094 132.146 130.332 132.482 130.472 132.874C130.64 133.266 130.752 133.672 130.808 134.092C131.144 133.448 131.536 132.902 131.984 132.454C132.46 131.978 132.95 131.6 133.454 131.32C133.958 131.012 134.476 130.802 135.008 130.69C135.54 130.55 136.03 130.48 136.478 130.48C137.01 130.48 137.542 130.578 138.074 130.774C138.634 130.97 139.138 131.264 139.586 131.656C140.034 132.048 140.384 132.552 140.636 133.168C140.916 133.784 141.056 134.512 141.056 135.352C141.056 136.108 140.944 136.822 140.72 137.494C140.496 138.166 140.174 138.768 139.754 139.3C139.334 139.804 138.816 140.21 138.2 140.518C137.612 140.798 136.954 140.938 136.226 140.938ZM141.333 148.834C141.333 146.314 142.467 144.34 144.735 142.912C147.003 141.484 150.349 140.714 154.773 140.602C154.801 140.294 154.815 140.042 154.815 139.846C154.843 139.622 154.857 139.356 154.857 139.048C154.857 138.152 154.689 137.438 154.353 136.906C154.017 136.374 153.317 136.108 152.253 136.108C151.665 136.108 151.189 136.192 150.825 136.36C150.461 136.528 150.167 136.766 149.943 137.074C149.719 137.354 149.537 137.704 149.397 138.124C149.257 138.544 149.131 139.006 149.019 139.51C148.963 139.762 148.837 139.93 148.641 140.014C148.445 140.07 148.137 140.098 147.717 140.098C144.861 140.098 143.433 139.02 143.433 136.864C143.433 135.996 143.629 135.17 144.021 134.386C144.441 133.602 145.043 132.93 145.827 132.37C146.639 131.782 147.647 131.32 148.851 130.984C150.055 130.648 151.455 130.48 153.051 130.48C156.159 130.48 158.413 131.124 159.813 132.412C161.213 133.7 161.913 135.52 161.913 137.872C161.913 138.18 161.871 138.74 161.787 139.552C161.731 140.336 161.647 141.176 161.535 142.072C161.451 142.94 161.367 143.766 161.283 144.55C161.227 145.334 161.199 145.88 161.199 146.188C161.199 146.888 161.325 147.392 161.577 147.7C161.829 147.98 162.109 148.176 162.417 148.288C162.753 148.4 163.047 148.484 163.299 148.54C163.551 148.596 163.677 148.736 163.677 148.96C163.677 149.576 163.593 150.206 163.425 150.85C163.257 151.494 162.977 152.082 162.585 152.614C162.221 153.146 161.703 153.58 161.031 153.916C160.387 154.252 159.589 154.42 158.637 154.42C157.293 154.42 156.285 154.098 155.613 153.454C154.941 152.81 154.493 151.914 154.269 150.766C153.597 151.746 152.715 152.6 151.623 153.328C150.559 154.056 149.159 154.42 147.423 154.42C146.583 154.42 145.785 154.322 145.029 154.126C144.301 153.93 143.657 153.608 143.097 153.16C142.565 152.712 142.131 152.138 141.795 151.438C141.487 150.71 141.333 149.842 141.333 148.834ZM154.395 144.046C153.667 144.046 152.953 144.102 152.253 144.214C151.553 144.326 150.923 144.508 150.363 144.76C149.831 144.984 149.397 145.292 149.061 145.684C148.725 146.076 148.557 146.552 148.557 147.112C148.557 147.756 148.753 148.204 149.145 148.456C149.565 148.708 150.013 148.834 150.489 148.834C150.937 148.834 151.385 148.736 151.833 148.54C152.281 148.344 152.673 148.05 153.009 147.658C153.373 147.238 153.681 146.734 153.933 146.146C154.185 145.558 154.339 144.858 154.395 144.046ZM176.843 148.834C177.655 148.834 178.355 148.722 178.943 148.498C179.559 148.274 180.091 148.022 180.539 147.742C180.987 147.462 181.365 147.21 181.673 146.986C181.981 146.762 182.261 146.65 182.513 146.65C183.157 146.65 183.479 147.07 183.479 147.91C183.479 148.106 183.437 148.386 183.353 148.75C183.269 149.086 183.157 149.45 183.017 149.842C182.877 150.206 182.723 150.556 182.555 150.892C182.415 151.228 182.275 151.48 182.135 151.648C181.995 151.788 181.743 152.012 181.379 152.32C181.043 152.628 180.581 152.936 179.993 153.244C179.405 153.552 178.719 153.818 177.935 154.042C177.151 154.294 176.283 154.42 175.331 154.42C174.267 154.42 173.161 154.266 172.013 153.958C170.893 153.622 169.871 153.062 168.947 152.278C168.023 151.466 167.253 150.388 166.637 149.044C166.049 147.672 165.755 145.964 165.755 143.92C165.755 143.192 165.797 142.366 165.881 141.442C165.993 140.49 166.203 139.524 166.511 138.544C166.819 137.536 167.225 136.556 167.729 135.604C168.261 134.624 168.961 133.756 169.829 133C170.697 132.244 171.733 131.642 172.937 131.194C174.169 130.718 175.625 130.48 177.305 130.48C178.677 130.48 179.853 130.648 180.833 130.984C181.841 131.292 182.667 131.726 183.311 132.286C183.955 132.818 184.431 133.448 184.739 134.176C185.075 134.904 185.243 135.688 185.243 136.528C185.243 138.04 184.767 139.16 183.815 139.888C182.863 140.588 181.519 140.938 179.783 140.938C179.363 140.938 179.069 140.91 178.901 140.854C178.761 140.77 178.691 140.602 178.691 140.35C178.691 139.678 178.677 139.076 178.649 138.544C178.621 138.012 178.537 137.564 178.397 137.2C178.285 136.836 178.103 136.556 177.851 136.36C177.599 136.164 177.235 136.066 176.759 136.066C175.891 136.066 175.191 136.346 174.659 136.906C174.155 137.466 173.763 138.152 173.483 138.964C173.231 139.748 173.063 140.56 172.979 141.4C172.923 142.24 172.895 142.94 172.895 143.5C172.895 145.488 173.203 146.874 173.819 147.658C174.463 148.442 175.471 148.834 176.843 148.834ZM196.617 136.57C196.533 137.634 196.435 138.684 196.323 139.72C196.239 140.756 196.155 141.736 196.071 142.66C195.987 143.584 195.917 144.41 195.861 145.138C195.833 145.866 195.819 146.426 195.819 146.818C195.819 147.546 195.903 148.036 196.071 148.288C196.239 148.512 196.519 148.624 196.911 148.624C197.219 148.624 197.485 148.568 197.709 148.456C197.933 148.344 198.143 148.218 198.339 148.078C198.535 147.938 198.703 147.812 198.843 147.7C199.011 147.588 199.193 147.532 199.389 147.532C199.585 147.532 199.767 147.644 199.935 147.868C200.103 148.092 200.187 148.61 200.187 149.422C200.187 150.962 199.767 152.18 198.927 153.076C198.087 153.972 196.645 154.42 194.601 154.42C192.585 154.42 191.087 153.958 190.107 153.034C189.155 152.082 188.679 150.64 188.679 148.708C188.679 148.288 188.693 147.798 188.721 147.238C188.777 146.65 188.847 145.894 188.931 144.97C189.015 144.046 189.113 142.912 189.225 141.568C189.365 140.224 189.505 138.558 189.645 136.57H187.419C187.195 136.57 187.055 136.528 186.999 136.444C186.971 136.332 186.957 136.178 186.957 135.982L187.083 133.84C187.111 133.476 187.153 133.126 187.209 132.79C187.293 132.426 187.433 132.104 187.629 131.824C187.853 131.544 188.161 131.32 188.553 131.152C188.945 130.984 189.463 130.9 190.107 130.9C190.303 130.396 190.527 129.794 190.779 129.094C191.031 128.394 191.283 127.722 191.535 127.078C191.787 126.406 192.025 125.846 192.249 125.398C192.501 124.95 192.725 124.726 192.921 124.726H194.139C195.315 124.726 196.127 125.09 196.575 125.818C197.023 126.546 197.247 127.414 197.247 128.422C197.247 128.982 197.205 129.808 197.121 130.9H201.531C201.979 130.9 202.203 131.096 202.203 131.488L202.035 133.756C201.979 134.596 201.741 135.282 201.321 135.814C200.929 136.318 200.103 136.57 198.843 136.57H196.617ZM208.689 154C207.821 154 207.107 153.916 206.547 153.748C206.015 153.552 205.581 153.286 205.245 152.95C204.937 152.614 204.713 152.208 204.573 151.732C204.461 151.228 204.405 150.654 204.405 150.01C204.405 149.59 204.419 149.002 204.447 148.246C204.503 147.462 204.587 146.398 204.699 145.054C204.811 143.682 204.937 141.96 205.077 139.888C205.245 137.788 205.441 135.198 205.665 132.118C205.693 131.502 205.763 131.138 205.875 131.026C205.959 130.942 206.183 130.9 206.547 130.9H208.185C209.053 130.9 209.753 130.984 210.285 131.152C210.845 131.32 211.279 131.572 211.587 131.908C211.923 132.244 212.147 132.65 212.259 133.126C212.399 133.602 212.469 134.134 212.469 134.722C212.469 135.142 212.441 135.772 212.385 136.612C212.329 137.452 212.245 138.6 212.133 140.056C212.049 141.484 211.923 143.276 211.755 145.432C211.587 147.56 211.377 150.136 211.125 153.16C211.097 153.496 211.027 153.72 210.915 153.832C210.803 153.944 210.565 154 210.201 154H208.689ZM205.707 125.944C205.707 124.824 206.113 123.942 206.925 123.298C207.737 122.654 208.829 122.332 210.201 122.332C211.405 122.332 212.273 122.584 212.805 123.088C213.365 123.564 213.645 124.208 213.645 125.02C213.645 126.056 213.253 126.924 212.469 127.624C211.713 128.296 210.593 128.632 209.109 128.632C206.841 128.632 205.707 127.736 205.707 125.944ZM225.583 154.42C223.651 154.42 222.041 154.154 220.753 153.622C219.493 153.062 218.485 152.306 217.729 151.354C216.973 150.402 216.441 149.296 216.133 148.036C215.825 146.748 215.671 145.376 215.671 143.92C215.671 142.24 215.867 140.602 216.259 139.006C216.679 137.382 217.379 135.94 218.359 134.68C219.339 133.42 220.627 132.412 222.223 131.656C223.847 130.872 225.863 130.48 228.271 130.48C231.799 130.48 234.319 131.348 235.831 133.084C237.371 134.792 238.141 137.2 238.141 140.308C238.141 141.176 238.071 142.142 237.931 143.206C237.819 144.242 237.581 145.278 237.217 146.314C236.881 147.35 236.405 148.358 235.789 149.338C235.201 150.318 234.445 151.186 233.521 151.942C232.597 152.698 231.477 153.3 230.161 153.748C228.873 154.196 227.347 154.42 225.583 154.42ZM227.557 136.066C226.493 136.066 225.639 136.346 224.995 136.906C224.379 137.438 223.903 138.096 223.567 138.88C223.259 139.636 223.049 140.448 222.937 141.316C222.853 142.156 222.811 142.87 222.811 143.458C222.811 145.306 223.105 146.664 223.693 147.532C224.281 148.4 225.121 148.834 226.213 148.834C227.193 148.834 227.991 148.526 228.607 147.91C229.251 147.294 229.741 146.552 230.077 145.684C230.441 144.816 230.679 143.906 230.791 142.954C230.931 142.002 231.001 141.204 231.001 140.56C231.001 139.16 230.735 138.068 230.203 137.284C229.699 136.472 228.817 136.066 227.557 136.066ZM255.599 150.304C255.599 149.688 255.641 148.89 255.725 147.91C255.837 146.902 255.935 145.852 256.019 144.76C256.131 143.64 256.229 142.562 256.313 141.526C256.425 140.49 256.481 139.622 256.481 138.922C256.481 138.194 256.299 137.55 255.935 136.99C255.599 136.402 254.927 136.108 253.919 136.108C252.939 136.108 252.127 136.346 251.483 136.822C250.839 137.298 250.293 138.166 249.845 139.426C249.425 140.686 249.075 142.422 248.795 144.634C248.515 146.846 248.249 149.688 247.997 153.16C247.969 153.496 247.899 153.72 247.787 153.832C247.675 153.944 247.437 154 247.073 154H245.561C244.693 154 243.979 153.916 243.419 153.748C242.887 153.552 242.453 153.286 242.117 152.95C241.809 152.614 241.585 152.208 241.445 151.732C241.333 151.228 241.277 150.654 241.277 150.01C241.277 149.59 241.291 149.002 241.319 148.246C241.375 147.462 241.459 146.398 241.571 145.054C241.683 143.682 241.809 141.96 241.949 139.888C242.117 137.788 242.313 135.198 242.537 132.118C242.565 131.502 242.635 131.138 242.747 131.026C242.831 130.942 243.055 130.9 243.419 130.9H245.057C245.897 130.9 246.583 130.998 247.115 131.194C247.675 131.39 248.123 131.656 248.459 131.992C248.795 132.3 249.033 132.678 249.173 133.126C249.313 133.546 249.397 133.98 249.425 134.428C250.293 132.944 251.287 131.922 252.407 131.362C253.527 130.774 254.927 130.48 256.607 130.48C257.783 130.48 258.805 130.606 259.673 130.858C260.541 131.11 261.255 131.544 261.815 132.16C262.403 132.748 262.837 133.532 263.117 134.512C263.397 135.464 263.537 136.654 263.537 138.082C263.537 138.53 263.509 139.174 263.453 140.014C263.397 140.854 263.327 141.778 263.243 142.786C263.159 143.766 263.061 144.802 262.949 145.894C262.865 146.958 262.781 147.952 262.697 148.876C262.613 149.8 262.543 150.612 262.487 151.312C262.431 152.012 262.403 152.474 262.403 152.698C262.403 153.314 262.333 153.692 262.193 153.832C262.053 153.944 261.745 154 261.269 154H259.925C259.029 154 258.301 153.916 257.741 153.748C257.181 153.58 256.747 153.342 256.439 153.034C256.131 152.726 255.907 152.348 255.767 151.9C255.655 151.424 255.599 150.892 255.599 150.304ZM277.067 130.48C279.447 130.48 281.197 130.956 282.317 131.908C283.437 132.832 283.997 134.022 283.997 135.478C283.997 136.71 283.605 137.648 282.821 138.292C282.065 138.936 280.959 139.258 279.503 139.258C279.111 139.258 278.845 139.216 278.705 139.132C278.565 139.048 278.495 138.894 278.495 138.67C278.495 138.418 278.467 138.138 278.411 137.83C278.383 137.494 278.285 137.186 278.117 136.906C277.977 136.598 277.739 136.346 277.403 136.15C277.095 135.954 276.647 135.856 276.059 135.856C275.275 135.856 274.645 136.052 274.169 136.444C273.693 136.808 273.455 137.27 273.455 137.83C273.455 138.418 273.693 138.894 274.169 139.258C274.673 139.594 275.289 139.916 276.017 140.224C276.773 140.532 277.585 140.854 278.453 141.19C279.321 141.498 280.119 141.918 280.847 142.45C281.603 142.982 282.219 143.654 282.695 144.466C283.199 145.25 283.451 146.272 283.451 147.532C283.451 149.548 282.737 151.2 281.309 152.488C279.881 153.776 277.739 154.42 274.883 154.42C274.099 154.42 273.189 154.35 272.153 154.21C271.145 154.098 270.179 153.916 269.255 153.664C268.331 153.384 267.547 153.02 266.903 152.572C266.287 152.124 265.979 151.564 265.979 150.892C265.979 150.64 266.021 150.332 266.105 149.968C266.217 149.604 266.371 149.254 266.567 148.918C266.791 148.582 267.043 148.302 267.323 148.078C267.631 147.826 267.995 147.7 268.415 147.7C268.751 147.7 269.059 147.784 269.339 147.952C269.619 148.12 269.941 148.302 270.305 148.498C270.697 148.666 271.173 148.834 271.733 149.002C272.293 149.17 273.035 149.254 273.959 149.254C274.659 149.254 275.275 149.17 275.807 149.002C276.367 148.834 276.647 148.456 276.647 147.868C276.647 147.336 276.423 146.916 275.975 146.608C275.527 146.272 274.953 145.964 274.253 145.684C273.581 145.404 272.839 145.11 272.027 144.802C271.243 144.466 270.501 144.032 269.801 143.5C269.129 142.968 268.569 142.296 268.121 141.484C267.673 140.644 267.449 139.566 267.449 138.25C267.449 136.822 267.729 135.618 268.289 134.638C268.877 133.63 269.619 132.818 270.515 132.202C271.439 131.586 272.475 131.152 273.623 130.9C274.771 130.62 275.919 130.48 277.067 130.48Z" fill="#0478FF"/>
<g clip-path="url(#clip0)">
<path d="M33.2014 68.8698C32.7069 69.1093 32.1064 68.9005 31.8669 68.406L31.105 66.8325C28.7541 61.9772 23.4275 59.2286 18.3469 59.9682L18.1074 59.4737C17.8898 59.0241 17.2892 58.8155 16.8397 59.0331L12.2541 61.2534C11.8045 61.4711 11.5959 62.0717 11.8135 62.5212L12.053 63.0157C8.30023 66.4977 7.06595 72.201 9.41689 77.0564L10.2876 78.8546C10.527 79.3491 10.3183 79.9497 9.82381 80.1891L8.92471 80.6245L10.2308 83.3219L35.4067 71.1318L34.1006 68.4344L33.2014 68.8698V68.8698Z" fill="#9FCBFF"/>
<path d="M29.3735 71.2804L14.0881 78.6815C13.8183 78.8121 13.5514 78.7193 13.4208 78.4496C13.2902 78.1798 13.3829 77.9129 13.6527 77.7823L28.9381 70.3812C29.2078 70.2506 29.4747 70.3434 29.6053 70.6131C29.7359 70.8829 29.6432 71.1498 29.3735 71.2804Z" fill="#1E50D0"/>
<path d="M19.6531 62.6672C19.3834 62.7978 19.1165 62.7051 18.9858 62.4353L18.1151 60.6371C17.9845 60.3673 18.0773 60.1004 18.347 59.9698C18.6168 59.8392 18.8837 59.932 19.0143 60.2017L19.885 62C20.0156 62.2697 19.9229 62.5366 19.6531 62.6672Z" fill="#1E50D0"/>
<path d="M13.3592 65.7141C13.0894 65.8447 12.8225 65.752 12.6919 65.4822L11.8212 63.684C11.6906 63.4142 11.7833 63.1473 12.0531 63.0167C12.3228 62.8861 12.5897 62.9788 12.7204 63.2486L13.5911 65.0468C13.7217 65.3166 13.6289 65.5835 13.3592 65.7141Z" fill="#1E50D0"/>
<path d="M17.5947 66.4396C17.325 66.5702 17.0581 66.4774 16.9275 66.2077L14.3153 60.8129C14.1847 60.5431 14.2775 60.2762 14.5472 60.1456C14.817 60.015 15.0839 60.1077 15.2145 60.3775L17.8266 65.7723C17.9355 65.9971 17.8645 66.309 17.5947 66.4396Z" fill="#1E50D0"/>
<path d="M21.5189 59.9875L22.2935 65.8281L26.4783 61.7485C24.9711 60.8134 23.2812 60.1887 21.5189 59.9875Z" fill="#1E50D0"/>
<path d="M10.1002 65.5142L14.2017 69.7439L8.40604 70.4968C8.60716 68.7345 9.16512 67.0214 10.1002 65.5142Z" fill="#1E50D0"/>
</g>
<defs>
<clipPath id="clip0">
<rect y="62.1914" width="27.9718" height="27.9718" transform="rotate(-25.836 0 62.1914)" fill="white"/>
</clipPath>
</defs>
</svg>
