<svg width="31" height="36" viewBox="0 0 31 36" fill="none" xmlns="http://www.w3.org/2000/svg">
<path d="M0.0804948 35.5982C-0.252769 35.0526 0.450788 34.2887 2.15414 33.343L3.59828 32.5427V22.7216C3.59828 13.9553 3.67234 12.7186 4.30184 11.4091C5.2646 9.29939 6.81984 7.66254 9.3008 6.06206C13.1148 3.66134 12.8186 2.7156 12.9667 18.0657L13.0408 31.4151L13.1519 16.2469C13.1889 7.91716 13.337 0.860498 13.4481 0.533127C13.7814 -0.339862 14.633 -0.194364 17.8916 1.36974C21.7427 3.18847 24.631 5.55281 26.001 7.98991L27.1119 9.95413L27.223 21.1575L27.3341 32.3245L28.8893 33.3066C30.5556 34.3251 31 34.7616 31 35.5254C31 36.1074 0.450788 36.1802 0.0804948 35.5982ZM8.52319 31.3787C9.96733 31.2332 10.6339 30.9786 10.6339 30.6512C10.6339 30.2875 10.3376 30.1784 9.63407 30.3602C7.89369 30.724 5.07946 31.6334 5.07946 31.8152C5.07946 31.9244 5.37569 31.9244 5.74599 31.8152C6.07925 31.7061 7.33825 31.5242 8.52319 31.3787ZM22.5573 31.0514C21.2983 30.7967 19.1506 30.5057 17.8546 30.3602C15.855 30.1784 15.4477 30.2147 15.4477 30.6512C15.4477 31.0877 16.1883 31.2332 19.2617 31.3424C21.3353 31.3787 23.446 31.4515 23.9644 31.4879C24.4828 31.4879 23.8533 31.306 22.5573 31.0514ZM10.6339 27.3775C10.6339 26.7592 10.782 26.7228 7.89369 27.5958C4.56105 28.6143 4.56105 29.0144 7.89369 28.3596C9.6711 28.0323 10.6339 27.6685 10.6339 27.3775ZM24.2607 28.5051C24.0385 28.2869 16.8548 26.8683 16.0031 26.8683C15.7069 26.8683 15.4477 27.0865 15.4477 27.3775C15.4477 27.7413 16.4475 27.9595 19.2617 28.2141C24.5199 28.7234 24.4828 28.7234 24.2607 28.5051ZM24.9642 25.9953C24.2236 25.4497 19.595 24.1402 17.0399 23.7401C15.7809 23.5582 15.4477 23.631 15.4477 24.0311C15.4477 24.3948 16.3734 24.6494 18.9284 24.9768C20.8169 25.1951 23.0387 25.6316 23.8163 25.9226C25.7048 26.5773 25.7418 26.5773 24.9642 25.9953ZM8.52319 25.0496C9.96733 24.7586 10.6339 24.4676 10.6339 24.0675C10.6339 23.7765 10.4117 23.5946 10.1895 23.6673C9.9303 23.7765 8.85645 24.1402 7.7826 24.4676C6.74578 24.7949 5.67193 25.3406 5.37569 25.6679C4.96837 26.1772 4.96837 26.2135 5.6349 25.8862C6.04222 25.6679 7.33825 25.3042 8.52319 25.0496ZM26.001 23.9583C25.5937 23.3036 22.2611 21.8122 19.4839 21.0484C16.2994 20.1754 15.4477 20.139 15.4477 20.8301C15.4477 21.1575 16.1512 21.4121 17.7065 21.5576C20.3726 21.8486 24.2236 22.9762 25.2605 23.7401C26.1492 24.3948 26.2973 24.4312 26.001 23.9583ZM8.78239 21.7759C9.89327 21.5212 10.6339 21.1575 10.6339 20.8301C10.6339 20.1754 10.6709 20.1754 8.30101 21.0484C7.22716 21.4485 5.82004 22.2851 5.22757 22.9035L4.15372 24.0311L5.52381 23.1217C6.30143 22.6125 7.74557 22.0305 8.78239 21.7759ZM25.5937 21.012C24.5939 19.9208 21.1132 18.2839 18.0397 17.4473C15.6328 16.7925 15.4106 16.7562 15.5217 17.3382C15.5958 17.7383 16.2993 18.0657 17.6694 18.3203C21.0021 19.0114 23.7793 19.9571 24.9272 20.9029C26.2602 21.9577 26.5195 21.9941 25.5937 21.012ZM8.63427 18.6476C9.89327 18.2839 10.6339 17.8838 10.6339 17.5564C10.6339 17.1563 10.4117 17.0472 9.81921 17.229C8.18992 17.7019 5.30163 19.4843 4.74619 20.3572C4.19075 21.1939 4.19075 21.1939 5.37569 20.2481C6.04222 19.7025 7.52339 18.975 8.63427 18.6476ZM25.2234 18.102C23.7422 16.5743 21.6316 15.4103 18.41 14.3191C15.1885 13.2278 15.3736 13.2642 15.5217 13.9917C15.5958 14.3918 16.5215 14.7919 18.2619 15.2284C21.2983 15.9923 24.1866 17.3382 25.2234 18.4658C25.6307 18.9023 26.001 19.2296 26.1121 19.2296C26.2232 19.2296 25.8529 18.7204 25.2234 18.102ZM8.74536 15.4103C9.81921 15.0829 10.6339 14.5737 10.6339 14.2827C10.6339 13.628 10.5598 13.6643 8.89348 14.3191C7.11607 15.0466 5.19054 16.5015 4.6351 17.52C4.30184 18.1748 4.48699 18.102 5.52381 17.1927C6.2644 16.5379 7.70854 15.7741 8.74536 15.4103ZM25.7418 15.8832C24.7791 14.3918 21.6316 12.3549 18.7063 11.2272C15.3736 9.95413 15.4477 9.99051 15.4477 10.6816C15.4477 11.009 16.2253 11.4091 17.5954 11.8092C20.4466 12.6095 24.631 14.7919 25.3345 15.8468C25.6307 16.3197 26.001 16.6834 26.0751 16.6834C26.1862 16.6834 26.0381 16.3197 25.7418 15.8832ZM8.59724 12.2821C9.70813 11.8456 10.6339 11.2272 10.6339 10.9726C10.6339 10.3543 10.5228 10.3543 8.44913 11.3727C6.74578 12.2457 4.33887 14.5009 4.33887 15.2648C4.33887 15.4467 4.85728 15.0466 5.44975 14.3554C6.07925 13.6643 7.48636 12.7186 8.59724 12.2821ZM25.5567 13.0096C24.5569 11.3364 22.6684 9.91776 19.2987 8.2809C16.0772 6.75317 15.4477 6.60767 15.4477 7.37154C15.4477 7.69891 16.3734 8.20815 17.7805 8.64465C20.928 9.69951 23.7052 11.3364 24.9642 12.8641C26.2602 14.4282 26.4454 14.5009 25.5567 13.0096ZM8.74536 9.04477C9.78218 8.5719 10.6339 7.98991 10.6339 7.69891C10.6339 7.08054 10.4857 7.11692 9.0416 7.80803C7.37528 8.68102 6.19034 9.59039 5.19054 10.9362C3.93155 12.6458 4.15372 12.8641 5.59787 11.3C6.30143 10.5361 7.70854 9.51764 8.74536 9.04477ZM25.5937 10.427C24.1866 8.1354 21.1132 5.69831 17.8546 4.31608C15.818 3.44309 15.4477 3.40672 15.4477 4.09783C15.4477 4.35245 16.4104 4.93445 17.6324 5.37094C20.2615 6.31668 24.0015 8.68102 24.8531 9.95413C25.4826 10.8635 26.1121 11.2636 25.5937 10.427Z" fill="#419FFF"/>
</svg>
